<svg t="1690649618241" class="icon" viewBox="0 0 1024 1024" version="1.1" xmlns="http://www.w3.org/2000/svg" p-id="3948"
  width="200" height="200">
  <path
    d="M511.91189937 991.99991188a132.02529281 132.02529281 0 0 1-66.01264593-17.60337188L144.52951812 800.29918719A132.02529281 132.02529281 0 0 1 78.51687219 685.96528344V337.94661219a132.02529281 132.02529281 0 0 1 66.01264593-114.42192094L445.89925344 49.60337281a132.02529281 132.02529281 0 0 1 132.02529187 0L879.47031406 223.61270844a132.02529281 132.02529281 0 0 1 66.01264688 114.42192V685.96528344a132.02529281 132.02529281 0 0 1-66.01264688 114.42192l-301.54576875 173.92131937a132.02529281 132.02529281 0 0 1-66.01264593 17.69138907zM511.91189937 58.40505875a105.62023406 105.62023406 0 0 0-52.8101175 14.0826975L157.7320475 246.49709188a105.62023406 105.62023406 0 0 0-52.8101175 91.44952031V685.96528344a105.62023406 105.62023406 0 0 0 52.8101175 91.44951937l301.36973438 174.00933563a105.62023406 105.62023406 0 0 0 105.620235 0l301.36973437-174.00933563a105.62023406 105.62023406 0 0 0 52.8101175-91.44951937V337.94661219a105.62023406 105.62023406 0 0 0-52.8101175-91.44952032L564.72201688 72.48775625a105.62023406 105.62023406 0 0 0-52.81011751-14.0826975z"
    p-id="3949"></path>
  <path
    d="M293.80611594 568.90285719a80.62344562 80.62344562 0 1 1 80.71146187-80.62344563A80.71146187 80.71146187 0 0 1 293.80611594 568.90285719z m0-134.8418325a54.21838688 54.21838688 0 1 0 54.30640312 54.21838687 54.21838688 54.21838688 0 0 0-54.30640312-54.39442031zM463.23857469 830.66500437a80.62344562 80.62344562 0 1 1 80.62344562-80.62344562 80.71146187 80.71146187 0 0 1-80.62344562 80.62344562z m0-134.8418325a54.21838688 54.21838688 0 1 0 54.21838687 54.21838688 54.30640406 54.30640406 0 0 0-54.21838687-54.21838688zM574.31585469 396.91790937a80.71146187 80.71146187 0 1 1 80.62344562-80.62344562 80.71146187 80.71146187 0 0 1-80.62344562 80.62344562z m0-134.92984968a54.30640406 54.30640406 0 1 0 54.21838687 54.30640406 54.30640406 54.30640406 0 0 0-54.21838687-54.30640406zM761.35168625 648.1180325a80.62344562 80.62344562 0 1 1 80.62344469-80.62344469A80.71146187 80.71146187 0 0 1 761.35168625 648.1180325z m0-134.84183156a54.21838688 54.21838688 0 1 0 54.21838687 54.21838687 54.30640406 54.30640406 0 0 0-54.21838687-54.57045469z"
    p-id="3950"></path>
  <path
    d="M430.58431906 704.36080719a13.29054656 13.29054656 0 0 1-11.00210812-5.80911282L320.73927594 551.29948437A13.20252938 13.20252938 0 0 1 342.56745688 536.51265219l99.19500374 147.25221a13.29054656 13.29054656 0 0 1-3.60869156 18.39552375 12.93847875 12.93847875 0 0 1-7.56945 2.20042125zM512.52801781 717.38730313h-0.70413562a13.29054656 13.29054656 0 0 1-12.49839375-13.90666407L517.45696156 366.464075a13.20252938 13.20252938 0 1 1 26.40505875 1.40826937l-18.13147406 337.01656407a13.29054656 13.29054656 0 0 1-13.20252844 12.49839468zM726.67304187 522.60598812a13.29054656 13.29054656 0 0 1-10.47400593-5.19299531L607.85027844 375.26576094a13.20252938 13.20252938 0 1 1 20.94801375-16.01906907l108.34875656 142.14723188a13.20252938 13.20252938 0 0 1-2.46447187 18.48354094 12.93847875 12.93847875 0 0 1-8.00953501 2.72852344z"
    p-id="3951"></path>
</svg>