<svg t="1689062218719" class="icon" viewBox="0 0 1024 1024" version="1.1" xmlns="http://www.w3.org/2000/svg" p-id="1603"
  width="200" height="200">
  <path
    d="M737.28 654.848h-81.92a42.496 42.496 0 0 0 0 84.992h81.92a42.496 42.496 0 1 0 0-84.992z m0-212.48h-81.92a39.936 39.936 0 0 0-40.96 42.496v84.992a39.936 39.936 0 0 0 40.96 42.496h81.92a44.544 44.544 0 0 0 46.08-42.496V484.864a44.032 44.032 0 0 0-46.08-42.496z m179.2-200.192l-102.4-102.4A131.584 131.584 0 0 0 721.92 102.4H332.8a131.584 131.584 0 0 0-92.16 37.376l-102.4 102.4A142.336 142.336 0 0 0 102.4 332.288v492.544a126.976 126.976 0 0 0 128 127.488h593.92a126.976 126.976 0 0 0 128-127.488V332.288a142.848 142.848 0 0 0-35.84-90.112z m-614.4-42.496a51.2 51.2 0 0 1 30.72-12.288h389.12a51.2 51.2 0 0 1 30.72 12.288l71.68 72.704H230.4z m563.2 625.152a39.936 39.936 0 0 1-40.96 42.496H230.4a39.936 39.936 0 0 1-40.96-42.496v-424.96A39.936 39.936 0 0 1 230.4 358.4h593.92a39.936 39.936 0 0 1 40.96 42.496z"
    p-id="1604"></path>
</svg>