<svg t="1689063530289" class="icon" viewBox="0 0 1024 1024" version="1.1" xmlns="http://www.w3.org/2000/svg" p-id="8152"
  width="200" height="200">
  <path
    d="M909.9 165.7 758.3 14.1c-4.7-4.7-11-7.1-17.7-7.1L133.1 7c-14 0-25.1 10.7-25.1 24.7l0 961.8c0 14 11.1 24.5 25.1 24.5l759.3 0c14 0 24.6-10.5 24.6-24.5L917 183.6C917 176.9 914.7 170.4 909.9 165.7zM740 67.5l119.1 119.1L740 183.9 740 67.5zM158 968 158 57l558 0 0 139.2c0 6.9 5.1 10.5 11.9 10.7l139.1 1.6L867 968 158 968z"
    fill="#ffffff" p-id="8153"></path>
  <path d="M235 335l582 0 0 26-582 0 0-26Z" fill="#ffffff" p-id="8154"></path>
  <path d="M235 563l582 0 0 26-582 0 0-26Z" fill="#ffffff" p-id="8155"></path>
  <path d="M235 791l582 0 0 25-582 0 0-25Z" fill="#ffffff" p-id="8156"></path>
</svg>