<svg t="1691739431355" class="icon" viewBox="0 0 1365 1024" version="1.1" xmlns="http://www.w3.org/2000/svg" p-id="4326"
    width="200" height="200">
    <path
        d="M1343.256195 443.661767C1285.275236 180.189471 1125.827601-8.248644 977.46456 0.277968h-5.968628A246.419073 246.419073 0 0 0 810.342975 59.964248a170.53223 170.53223 0 0 1-127.899173 57.128297A170.53223 170.53223 0 0 1 558.807935 63.374893 246.419073 246.419073 0 0 0 394.244332 0.277968h-6.821289C239.060003-8.248644 79.612367 180.189471 21.631409 443.661767c-62.244264 279.672858 14.49524 538.029187 170.53223 575.546277 114.256594 28.137818 239.597784-70.770876 323.158577-234.481817H852.976032c85.266115 164.563602 208.901982 262.619635 323.158577 234.481817 152.626346-38.369752 228.513189-295.87342 167.121586-575.546277z m-792.122211 15.3479H426.645456v130.457157H326.03144V459.009667H201.542912V354.132346h124.488528V223.675189H426.645456v130.457157h123.635867z m357.265023 12.789918a65.654909 65.654909 0 1 1 62.244264-65.654909 63.949586 63.949586 0 0 1-62.244264 65.654909z m197.817387 0a65.654909 65.654909 0 1 1 62.244264-65.654909 63.949586 63.949586 0 0 1-59.68628 65.654909z"
        p-id="4327"></path>
</svg>