<svg t="1691654237568" class="icon" viewBox="0 0 1024 1024" version="1.1" xmlns="http://www.w3.org/2000/svg" p-id="6327"
    width="200" height="200">
    <path
        d="M409.4 233.4c-29.5 0.3-53.2 24.4-53.1 53.9 0 29.9 23.3 53.9 53.1 53.9 28.7 0 53.1-24.1 53.1-53.9 0.2-14.2-5.3-27.9-15.3-38.1-9.9-10.1-23.6-15.8-37.8-15.8zM286.9 396.3c-29.5 0.3-53.2 24.4-53.1 53.9 0 29.9 23.3 53.9 53.1 53.9 28.7 0 53.1-24.1 53.1-53.9 0.2-14.2-5.3-27.9-15.3-38.1-9.9-10.1-23.6-15.8-37.8-15.8zM612.5 233.4c-29.5 0.3-53.2 24.4-53.1 53.9 0 29.9 23.3 53.9 53.1 53.9 28.7 0 53.1-24.1 53.1-53.9 0.2-14.2-5.3-27.9-15.3-38.1-10-10.1-23.6-15.8-37.8-15.8zM736.3 397.4c-29.5 0.3-53.2 24.4-53.1 53.9 0 29.9 23.3 53.9 53.1 53.9 28.7 0 53.1-24.1 53.1-53.9 0.2-14.2-5.3-27.9-15.3-38.1-9.9-10.1-23.5-15.8-37.8-15.8z"
        p-id="6328"></path>
    <path
        d="M510.7 107C288.1 107 107 288.8 107 512.2 107 735.4 288.1 917 510.7 917c53.3 0 96.8-43.4 96.8-96.7 0-24.5-9-48.2-23.6-62.8-6.4-7.8-7.6-12.1-7.6-17.4 0-14.6 11.9-26.5 26.5-26.5h73.9C809.2 713.6 917 604.9 917 471c-3.1-200.7-185.4-364-406.3-364z m165.9 564.7h-73.9c-37.7 0-68.4 30.7-68.4 68.4 0 16.1 5.3 29.7 17.5 44.4l1.8 2c7.4 7.4 12 20.4 12 33.8 0 30.2-24.6 54.8-54.9 54.8-199.5 0-361.9-162.8-361.9-362.9 0-200.3 162.3-363.3 361.9-363.3 198.2 0 361.7 144.8 364.4 322.5 0 110.4-89 200.3-198.5 200.3z"
        p-id="6329"></path>
</svg>