<svg t="1691739492703" class="icon" viewBox="0 0 1024 1024" version="1.1" xmlns="http://www.w3.org/2000/svg" p-id="6344"
    width="200" height="200">
    <path
        d="M977.486769 516.194462 558.907077 88.615385c-25.856-26.427077-67.938462-26.427077-93.814154 0L46.513231 516.194462c-9.964308 10.180923-9.964308 26.683077 0 36.864 9.964308 10.180923 26.112 10.180923 36.076308 0L111.970462 512l0 369.230769c0 37.356308 34.934154 73.964308 71.522462 73.964308l653.193846 0c36.588308 0 75.736615-36.608 75.736615-73.964308l0-344.615385 28.987077 16.443077c4.982154 5.100308 11.52 7.620923 18.038154 7.620923 6.537846 0 13.056-2.540308 18.038154-7.620923C987.451077 542.877538 987.451077 526.355692 977.486769 516.194462L977.486769 516.194462zM621.351385 905.846154 403.042462 905.846154 403.042462 635.076923c0.748308 1.378462 15.812923 0 24.260923 0l194.048 0c8.448 0 0-8.625231 0 0L621.351385 905.846154 621.351385 905.846154zM863.901538 881.230769c0 8.625231-15.812923 24.615385-24.260923 24.615385l-169.787077 0L669.853538 635.076923c0-37.356308-11.933538-49.230769-48.502154-49.230769L403.042462 585.846154c-40.369231 2.304-48.521846 36.470154-48.521846 73.846154L354.520615 905.846154l-169.787077 0c-8.448 0-24.260923-15.990154-24.260923-24.615385l0-393.846154L501.169231 125.479385c5.966769-6.104615 15.675077-6.104615 21.641846 0L863.901538 487.384615 863.901538 881.230769 863.901538 881.230769zM863.901538 905.846154"
        p-id="6345"></path>
</svg>